<?xml version="1.0" encoding="utf-8"?>
<!-- Generator: Adobe Illustrator 25.2.3, SVG Export Plug-In . SVG Version: 6.00 Build 0)  -->
<svg version="1.1" id="Layer_1" xmlns="http://www.w3.org/2000/svg" xmlns:xlink="http://www.w3.org/1999/xlink" x="0px" y="0px"
	 viewBox="0 0 1022.7 324.7" style="enable-background:new 0 0 1022.7 324.7;" xml:space="preserve">
<style type="text/css">
	.st0{fill:#131E48;}
	.st1{fill:#180C14;}
	.st2{font-family:'JetBrainsMono-Bold';}
	.st3{font-size:120px;}
</style>
<path class="st0" d="M757.1,62.9c-8.4,0.1-15.4-5.2-15.5-11.9l0,0c0-6.6,6.9-11.9,15.5-11.9h53.1c44.5,0,80.7,27.9,80.7,62.2l0,40
	l0,0c-0.1,6.7-7,12.1-15.5,11.9l0,0c-15.2,0-27.6,9.5-27.6,21.3c0,11.7,12.4,21.3,27.6,21.3c4.1,0,8.1,1.3,10.9,3.5
	c2.9,2.2,4.5,5.2,4.5,8.4v40c0,34.3-36.2,62.2-80.7,62.2H228c-44.5,0-80.8-27.8-80.8-62.2v-41.3c0-3.2,1.6-6.2,4.5-8.5
	c2.9-2.2,6.9-3.5,10.9-3.5c15.7,0,27.6-8.6,27.6-20c0-11.7-12.4-21.3-27.6-21.3c-8.4,0.1-15.3-5.2-15.5-11.9l0,0v-39.9
	c0-34.3,36.2-62.2,80.7-62.2H254c8.5,0,15.5,5.3,15.5,11.9c-0.1,6.7-7,12.1-15.5,11.9l0,0h-26.2c-27.3,0-49.6,17.2-49.6,38.4V131
	c24.8,5.2,43.1,22.8,43.1,43.5c0,20.5-18,37.3-43.1,42.3v30.9c0,21.1,22.4,38.3,49.8,38.3h545v-0.2c0-6.6,6.9-11.9,15.5-11.9
	c8.5,0,15.5,5.3,15.5,11.9v0.2h6.2c27.5,0,49.8-17.2,49.8-38.3V218c-24.8-5.2-43.1-22.8-43.1-43.5s18.3-38.2,43.1-43.5v-29.7
	c0-21.1-22.3-38.3-49.8-38.3"/>
<text transform="matrix(1 0 0 1 295.8185 94.1979)" class="st1 st2 st3">Future</text>
<text transform="matrix(1 0 0 1 367.8185 238.1979)" class="st1 st2 st3">Poap</text>
</svg>
